<svg width="42" height="13" fill="none" xmlns="http://www.w3.org/2000/svg"><path d="M6.152 6.288c.597.107 1.104.421 1.52.944.416.523.624 1.115.624 1.776 0 .565-.15 1.077-.448 1.536-.288.448-.71.805-1.264 1.072-.555.256-1.2.384-1.936.384H.2V.88h4.24c.757 0 1.408.128 1.952.384s.955.603 1.232 1.04c.277.427.416.907.416 1.44 0 .64-.17 1.173-.512 1.6-.341.427-.8.741-1.376.944zm-4.128-.736H4.28c.597 0 1.061-.133 1.392-.4.341-.277.512-.672.512-1.184 0-.501-.17-.89-.512-1.168-.33-.288-.795-.432-1.392-.432H2.024v3.184zm2.464 4.96c.619 0 1.104-.15 1.456-.448.352-.299.528-.715.528-1.248 0-.544-.187-.976-.56-1.296-.373-.32-.87-.48-1.488-.48h-2.4v3.472h2.464zm7.614-8.16v3.264h3.84v1.488h-3.84v3.408h4.32V12h-6.144V.864h6.144v1.488h-4.32zm5.959 4.064c0-1.088.25-2.064.752-2.928a5.427 5.427 0 012.064-2.016A5.755 5.755 0 0123.74.736c1.184 0 2.234.293 3.152.88.928.576 1.6 1.397 2.016 2.464h-2.192c-.288-.587-.688-1.024-1.2-1.312-.512-.288-1.104-.432-1.776-.432-.736 0-1.392.165-1.968.496-.576.33-1.03.805-1.36 1.424-.32.619-.48 1.339-.48 2.16 0 .821.16 1.541.48 2.16.33.619.784 1.099 1.36 1.44.576.33 1.232.496 1.968.496.672 0 1.264-.144 1.776-.432.512-.288.912-.725 1.2-1.312h2.192c-.416 1.067-1.088 1.888-2.016 2.464-.918.576-1.968.864-3.152.864-1.046 0-2-.24-2.864-.72a5.548 5.548 0 01-2.064-2.032c-.502-.864-.752-1.84-.752-2.928zm18.055 5.696c-1.035 0-1.99-.24-2.864-.72a5.548 5.548 0 01-2.064-2.032c-.502-.875-.752-1.856-.752-2.944 0-1.088.25-2.064.752-2.928a5.427 5.427 0 012.064-2.016 5.755 5.755 0 012.864-.736c1.045 0 2 .245 2.864.736a5.282 5.282 0 012.064 2.016c.501.864.752 1.84.752 2.928 0 1.088-.25 2.07-.752 2.944a5.397 5.397 0 01-2.064 2.032c-.864.48-1.819.72-2.864.72zm0-1.584c.736 0 1.392-.165 1.968-.496a3.506 3.506 0 001.344-1.44c.33-.63.496-1.355.496-2.176 0-.821-.166-1.541-.496-2.16a3.4 3.4 0 00-1.344-1.424c-.576-.33-1.232-.496-1.968-.496s-1.392.165-1.968.496c-.576.33-1.03.805-1.36 1.424-.32.619-.48 1.339-.48 2.16 0 .821.16 1.547.48 2.176.33.619.784 1.099 1.36 1.44.576.33 1.232.496 1.968.496z" fill="#333"/></svg>