<svg width="42" height="13" viewBox="0 0 42 13" fill="none" xmlns="http://www.w3.org/2000/svg">
<path d="M6.152 6.288C6.74933 6.39467 7.256 6.70933 7.672 7.232C8.088 7.75467 8.296 8.34667 8.296 9.008C8.296 9.57333 8.14667 10.0853 7.848 10.544C7.56 10.992 7.13867 11.3493 6.584 11.616C6.02933 11.872 5.384 12 4.648 12H0.2V0.879999H4.44C5.19733 0.879999 5.848 1.008 6.392 1.264C6.936 1.52 7.34667 1.86667 7.624 2.304C7.90133 2.73067 8.04 3.21067 8.04 3.744C8.04 4.384 7.86933 4.91733 7.528 5.344C7.18667 5.77067 6.728 6.08533 6.152 6.288ZM2.024 5.552H4.28C4.87733 5.552 5.34133 5.41867 5.672 5.152C6.01333 4.87467 6.184 4.48 6.184 3.968C6.184 3.46667 6.01333 3.07733 5.672 2.8C5.34133 2.512 4.87733 2.368 4.28 2.368H2.024V5.552ZM4.488 10.512C5.10667 10.512 5.592 10.3627 5.944 10.064C6.296 9.76533 6.472 9.34933 6.472 8.816C6.472 8.272 6.28533 7.84 5.912 7.52C5.53867 7.2 5.04267 7.04 4.424 7.04H2.024V10.512H4.488ZM12.1021 2.352V5.616H15.9421V7.104H12.1021V10.512H16.4221V12H10.2781V0.863999H16.4221V2.352H12.1021ZM18.0608 6.416C18.0608 5.328 18.3114 4.352 18.8128 3.488C19.3248 2.624 20.0128 1.952 20.8768 1.472C21.7514 0.981332 22.7061 0.735999 23.7408 0.735999C24.9248 0.735999 25.9754 1.02933 26.8928 1.616C27.8208 2.192 28.4928 3.01333 28.9088 4.08H26.7168C26.4288 3.49333 26.0288 3.056 25.5168 2.768C25.0048 2.48 24.4128 2.336 23.7408 2.336C23.0048 2.336 22.3488 2.50133 21.7728 2.832C21.1968 3.16267 20.7434 3.63733 20.4128 4.256C20.0928 4.87467 19.9328 5.59467 19.9328 6.416C19.9328 7.23733 20.0928 7.95733 20.4128 8.576C20.7434 9.19467 21.1968 9.67467 21.7728 10.016C22.3488 10.3467 23.0048 10.512 23.7408 10.512C24.4128 10.512 25.0048 10.368 25.5168 10.08C26.0288 9.792 26.4288 9.35467 26.7168 8.768H28.9088C28.4928 9.83467 27.8208 10.656 26.8928 11.232C25.9754 11.808 24.9248 12.096 23.7408 12.096C22.6954 12.096 21.7408 11.856 20.8768 11.376C20.0128 10.8853 19.3248 10.208 18.8128 9.344C18.3114 8.48 18.0608 7.504 18.0608 6.416ZM36.1158 12.112C35.0811 12.112 34.1264 11.872 33.2518 11.392C32.3878 10.9013 31.6998 10.224 31.1878 9.36C30.6864 8.48533 30.4358 7.504 30.4358 6.416C30.4358 5.328 30.6864 4.352 31.1878 3.488C31.6998 2.624 32.3878 1.952 33.2518 1.472C34.1264 0.981332 35.0811 0.735999 36.1158 0.735999C37.1611 0.735999 38.1158 0.981332 38.9798 1.472C39.8544 1.952 40.5424 2.624 41.0438 3.488C41.5451 4.352 41.7958 5.328 41.7958 6.416C41.7958 7.504 41.5451 8.48533 41.0438 9.36C40.5424 10.224 39.8544 10.9013 38.9798 11.392C38.1158 11.872 37.1611 12.112 36.1158 12.112ZM36.1158 10.528C36.8518 10.528 37.5078 10.3627 38.0838 10.032C38.6598 9.69067 39.1078 9.21067 39.4278 8.592C39.7584 7.96267 39.9238 7.23733 39.9238 6.416C39.9238 5.59467 39.7584 4.87467 39.4278 4.256C39.1078 3.63733 38.6598 3.16267 38.0838 2.832C37.5078 2.50133 36.8518 2.336 36.1158 2.336C35.3798 2.336 34.7238 2.50133 34.1478 2.832C33.5718 3.16267 33.1184 3.63733 32.7878 4.256C32.4678 4.87467 32.3078 5.59467 32.3078 6.416C32.3078 7.23733 32.4678 7.96267 32.7878 8.592C33.1184 9.21067 33.5718 9.69067 34.1478 10.032C34.7238 10.3627 35.3798 10.528 36.1158 10.528Z" fill="#333333"/>
</svg>
